<?xml version="1.0" standalone="no"?>
<!DOCTYPE svg PUBLIC "-//W3C//DTD SVG 20010904//EN"
 "http://www.w3.org/TR/2001/REC-SVG-20010904/DTD/svg10.dtd">
<svg version="1.0" xmlns="http://www.w3.org/2000/svg"
 width="641.000000pt" height="415.000000pt" viewBox="0 0 641.000000 415.000000"
 preserveAspectRatio="xMidYMid meet">

<g transform="translate(0.000000,415.000000) scale(0.100000,-0.100000)"
fill="#000000" stroke="none">
<path d="M5010 3928 c-538 -42 -868 -622 -639 -1120 l32 -68 -72 -119 c-63
-103 -71 -122 -61 -140 6 -12 19 -21 30 -21 16 0 161 58 226 91 19 10 30 5 75
-31 62 -49 182 -111 258 -134 273 -81 578 -5 780 195 160 159 234 338 233 564
-1 149 -23 239 -89 368 -38 75 -64 109 -143 187 -77 78 -112 104 -185 142
-149 76 -274 100 -445 86z m301 -68 c206 -69 385 -233 466 -425 52 -123 71
-266 53 -388 -48 -311 -257 -548 -556 -628 -112 -31 -271 -31 -378 0 -97 27
-213 86 -284 145 l-54 43 -77 -32 c-43 -18 -97 -42 -121 -54 -24 -11 -45 -19
-47 -17 -2 2 28 56 67 120 l71 116 -30 58 c-117 232 -111 502 16 722 48 83
189 224 273 273 172 100 420 127 601 67z"/>
<path d="M4978 3440 c-41 -22 -77 -66 -80 -100 -2 -18 5 -26 29 -36 31 -13 33
-13 50 14 39 63 103 82 143 42 42 -42 16 -109 -59 -151 -61 -34 -84 -110 -38
-123 35 -9 47 -7 47 8 0 16 38 49 98 85 144 86 76 281 -98 280 -35 0 -69 -7
-92 -19z"/>
<path d="M4987 3024 c-4 -4 -7 -24 -7 -45 0 -34 2 -37 36 -44 44 -8 55 4 52
55 -3 32 -6 35 -38 38 -20 2 -39 0 -43 -4z"/>
<path d="M3169 3702 c-84 -55 -145 -195 -164 -374 l-7 -67 -77 -42 c-42 -23
-89 -51 -106 -63 -16 -12 -70 -39 -118 -60 -88 -37 -178 -86 -208 -112 -14
-12 -24 -11 -75 12 -130 58 -303 104 -391 104 -76 0 -123 -51 -123 -135 0 -99
93 -306 187 -417 26 -31 66 -85 87 -120 l40 -63 -3 -105 c-1 -78 3 -123 17
-177 17 -61 17 -73 5 -73 -29 0 11 -134 57 -192 17 -20 30 -39 30 -41 0 -2
-34 -19 -75 -38 -41 -18 -75 -36 -75 -39 0 -11 64 -67 107 -94 24 -14 63 -31
89 -38 l46 -13 -7 -45 c-4 -25 -18 -76 -32 -115 -55 -155 -62 -193 -62 -347
l-1 -148 -950 0 -950 0 0 -55 0 -55 964 0 964 0 32 -52 c53 -85 120 -157 198
-209 95 -64 178 -89 292 -89 99 0 143 14 186 59 28 30 29 30 49 12 93 -85 345
-88 582 -8 133 45 181 84 253 202 19 32 41 64 48 71 11 12 192 14 1053 14
l1040 0 -3 53 -3 52 -1015 2 c-558 2 -1018 3 -1021 3 -3 0 0 30 6 68 8 48 9
161 3 402 -10 389 -16 455 -52 532 -14 31 -26 74 -27 95 0 21 -4 61 -9 88 -7
42 -3 67 22 155 35 126 47 277 28 372 -13 69 -53 164 -94 224 -38 56 -141 158
-204 202 -40 27 -61 51 -82 93 -16 31 -40 70 -54 86 -14 17 -41 72 -59 124
-66 182 -156 332 -217 364 -39 20 -89 19 -121 -3z m136 -74 c40 -35 127 -204
166 -323 12 -38 33 -81 45 -95 31 -35 84 -133 84 -155 0 -16 -7 -17 -65 -12
-94 9 -209 64 -176 86 11 7 11 21 1 77 -13 78 -51 186 -67 191 -28 10 -25
-190 4 -235 12 -20 9 -19 -28 8 -23 16 -48 30 -56 30 -25 0 -67 108 -71 182
-6 90 20 194 59 242 37 44 58 45 104 4z m-1200 -583 c139 -26 365 -110 365
-136 0 -7 -7 -8 -17 -4 -46 19 -81 24 -110 19 -40 -7 -41 -18 -8 -40 42 -27
76 -94 66 -129 -4 -17 -12 -30 -17 -29 -5 0 -49 19 -98 43 -110 52 -146 61
-146 35 1 -29 38 -106 67 -136 16 -17 37 -28 53 -28 14 0 35 -7 46 -15 10 -8
28 -15 39 -16 11 -1 4 -4 -15 -8 -19 -3 -57 -3 -84 0 -44 5 -56 12 -97 57 -62
68 -119 181 -119 237 0 45 29 95 56 95 29 0 13 22 -31 41 -42 19 -55 29 -37
29 4 0 43 -7 87 -15z m1111 -125 c15 -6 33 -18 40 -28 16 -20 18 -87 5 -128
-5 -16 -12 -46 -16 -66 -4 -29 -11 -38 -25 -38 -45 0 -150 132 -150 188 0 66
70 101 146 72z m589 -123 c72 -49 119 -137 136 -259 22 -150 -7 -304 -100
-537 -20 -49 -21 -62 -12 -120 24 -157 23 -229 -5 -371 -6 -34 -6 -34 11 -15
10 13 8 4 -6 -23 -50 -94 -194 -212 -323 -264 -73 -30 -101 -32 -41 -3 52 24
38 28 -36 11 -35 -9 -109 -18 -164 -21 l-100 -5 101 24 c283 68 406 173 489
419 24 72 59 256 50 265 -7 7 -75 -148 -96 -218 -50 -173 -142 -279 -264 -305
-20 -4 -6 7 42 34 57 33 82 55 117 105 47 65 85 140 86 166 0 8 -14 -9 -31
-39 -43 -75 -152 -180 -224 -216 -58 -29 -65 -30 -195 -30 -154 0 -217 16
-350 88 -115 62 -343 229 -397 291 -48 54 -114 192 -120 249 -5 46 -2 56 20
83 14 17 44 36 67 43 23 7 55 25 72 42 17 16 38 29 46 29 9 0 48 -16 87 -35
91 -45 130 -51 175 -28 48 25 69 67 85 170 25 155 65 230 139 264 56 26 84 24
147 -10 30 -16 81 -43 113 -60 69 -37 126 -40 173 -11 50 30 66 72 61 151 -6
77 0 92 33 89 49 -4 60 1 80 35 18 31 26 35 61 35 24 0 52 -9 73 -23z m-998
-69 c47 -38 86 -169 75 -246 -3 -22 -7 -23 -40 -17 -24 4 -53 22 -82 49 -25
24 -60 53 -77 65 -23 16 -33 30 -33 48 0 33 45 110 67 116 25 7 73 -1 90 -15z
m621 10 c20 -20 13 -30 -10 -14 -31 22 -71 20 -93 -4 -10 -11 -20 -18 -23 -15
-3 3 3 14 13 25 21 23 93 28 113 8z m-78 -48 c0 -5 -7 -10 -15 -10 -8 0 -15 5
-15 10 0 6 7 10 15 10 8 0 15 -4 15 -10z m-605 -250 c-34 -14 -68 -58 -69 -90
-1 -17 -6 -30 -13 -30 -16 0 -16 5 -3 52 12 41 52 78 84 77 20 0 21 0 1 -9z
m53 -41 c-2 -6 -8 -10 -13 -10 -5 0 -11 4 -13 10 -2 6 4 11 13 11 9 0 15 -5
13 -11z m1152 -533 c0 -6 -7 -2 -15 8 -8 11 -15 25 -15 30 0 6 7 2 15 -8 8
-11 15 -25 15 -30z m40 -362 c5 -149 5 -287 1 -306 -16 -68 -134 -203 -204
-232 -54 -23 -218 -50 -302 -51 -46 0 -90 -5 -102 -13 -19 -10 -23 -10 -23 1
0 7 37 39 83 70 154 105 306 253 393 383 78 117 105 207 121 399 11 141 24 43
33 -251z m-1377 -84 c-3 -10 -11 -25 -19 -31 -27 -22 -14 -30 16 -9 33 23 39
17 14 -18 -17 -25 -7 -29 22 -7 25 19 38 19 30 0 -3 -8 -9 -22 -12 -31 -5 -12
-1 -14 21 -8 24 6 27 5 20 -15 -5 -17 -2 -21 15 -21 13 0 24 -8 27 -18 2 -10
24 -27 48 -38 28 -12 46 -27 50 -41 5 -20 8 -21 25 -10 16 9 22 9 28 0 5 -7
34 -22 67 -33 68 -23 65 -23 65 -10 0 6 -5 10 -12 10 -13 0 -79 75 -92 104 -5
14 -10 17 -13 8 -4 -10 -9 -9 -24 4 -10 9 -19 22 -19 28 0 6 -9 17 -20 24 -20
12 -28 42 -11 42 6 0 16 -8 23 -18 7 -10 78 -77 158 -148 80 -71 179 -162 220
-202 73 -72 74 -74 51 -83 -14 -5 -31 -7 -40 -4 -8 3 -18 0 -23 -7 -6 -10 -10
-10 -19 2 -8 11 -12 12 -16 3 -7 -19 -23 -16 -23 5 -1 15 -2 15 -13 2 -7 -8
-28 -21 -47 -28 -31 -11 -37 -10 -47 5 -12 16 -13 16 -13 0 0 -23 -23 -21 -38
4 -9 13 -19 18 -31 14 -13 -4 -26 3 -40 21 -17 21 -22 23 -27 11 -5 -14 -10
-13 -40 4 -19 10 -43 19 -54 19 -11 0 -29 9 -40 20 -12 12 -25 18 -30 15 -6
-4 -13 0 -16 8 -3 8 -17 17 -32 20 -17 4 -34 18 -46 39 -11 18 -32 49 -48 68
-106 128 -111 140 -84 204 12 28 81 116 91 116 2 0 1 -9 -2 -20z m204 -541
c169 -88 233 -131 233 -156 0 -7 5 -13 10 -13 6 0 10 9 10 19 0 39 43 73 131
101 62 21 89 25 103 18 12 -7 26 -6 43 1 33 15 255 34 324 28 80 -7 114 -28
134 -82 21 -54 15 -136 -13 -175 -53 -73 -318 -139 -509 -127 -119 7 -189 51
-209 133 -7 26 -8 25 -19 -19 -27 -108 -120 -146 -280 -116 -74 13 -133 53
-173 117 -82 127 -82 255 1 296 59 29 127 21 214 -25z"/>
<path d="M3654 2445 c28 -75 40 -419 15 -452 -7 -10 -2 -8 12 5 23 22 24 26
24 180 0 122 -4 170 -18 214 -9 31 -22 60 -29 64 -8 5 -9 2 -4 -11z"/>
<path d="M3265 2327 c-88 -35 -166 -79 -181 -102 -20 -30 -22 -98 -4 -120 9
-11 22 -14 46 -9 37 7 40 3 23 -27 -18 -35 5 -49 80 -49 78 0 89 -6 97 -47 5
-26 2 -32 -15 -38 -11 -3 -50 -39 -87 -80 -81 -90 -111 -105 -162 -81 -20 10
-54 32 -77 49 l-40 31 35 -38 c19 -21 53 -47 74 -58 53 -27 96 -14 156 47 41
42 47 45 97 45 72 0 113 19 146 67 31 44 49 53 115 53 62 0 82 25 81 98 l-2
57 -6 -51 c-9 -75 -20 -84 -106 -84 -39 0 -94 -7 -121 -15 -27 -8 -50 -15 -51
-15 0 0 -6 14 -12 32 -11 30 -9 34 29 73 42 43 56 95 25 95 -20 0 -19 21 2 58
22 39 8 73 -39 94 -53 25 -71 27 -103 15z"/>
<path d="M2894 1742 c11 -19 134 -52 192 -52 53 0 104 16 104 32 0 4 12 8 28
8 15 0 34 5 42 10 30 20 -59 10 -97 -10 -21 -11 -49 -20 -63 -20 -32 1 -169
26 -194 36 -13 5 -17 4 -12 -4z"/>
</g>
</svg>
